<svg width="46" height="43" viewBox="0 0 46 43" fill="none" xmlns="http://www.w3.org/2000/svg">
<path d="M19.0299 12.07C19.1708 12.0175 19.3222 11.9903 19.4753 11.9898C19.6284 11.9893 19.7801 12.0156 19.9214 12.0672C20.0626 12.1188 20.1906 12.1945 20.2977 12.29C20.4049 12.3855 20.489 12.4988 20.5451 12.6231C20.6013 12.7475 20.6283 12.8804 20.6246 13.014C20.6209 13.1477 20.5865 13.2793 20.5235 13.4011C20.4605 13.523 20.3702 13.6325 20.2579 13.7234C20.1456 13.8142 20.0135 13.8845 19.8696 13.93C19.1039 14.1934 18.4467 14.6519 17.9836 15.2458C17.5204 15.8397 17.2728 16.5415 17.2728 17.26V19C17.2728 19.2652 17.3935 19.5196 17.6083 19.7071C17.8231 19.8946 18.1145 20 18.4183 20H27.5818C27.8856 20 28.177 19.8946 28.3918 19.7071C28.6066 19.5196 28.7273 19.2652 28.7273 19V17.353C28.7274 16.6115 28.4694 15.8874 27.9874 15.2768C27.5055 14.6662 26.8224 14.1979 26.0286 13.934C25.8838 13.8901 25.7505 13.8213 25.6367 13.7316C25.5228 13.6419 25.4308 13.5332 25.366 13.4119C25.3012 13.2905 25.265 13.1591 25.2594 13.0253C25.2539 12.8916 25.2792 12.7582 25.3338 12.6331C25.3884 12.508 25.4712 12.3938 25.5773 12.2972C25.6835 12.2006 25.8107 12.1235 25.9516 12.0706C26.0924 12.0177 26.244 11.9901 26.3973 11.9893C26.5507 11.9885 26.7026 12.0146 26.8442 12.066C28.0716 12.4742 29.1281 13.1983 29.8735 14.1425C30.6189 15.0867 31.0181 16.2063 31.0182 17.353V19C31.0182 19.7956 30.6561 20.5587 30.0117 21.1213C29.3673 21.6839 28.4932 22 27.5818 22H18.4183C17.5069 22 16.6329 21.6839 15.9884 21.1213C15.344 20.5587 14.9819 19.7956 14.9819 19V17.26C14.9821 16.1402 15.3683 15.0463 16.0902 14.1206C16.8122 13.195 17.8365 12.4805 19.0299 12.07ZM23.0001 2C24.2152 2 25.3806 2.42143 26.2399 3.17157C27.0991 3.92172 27.5818 4.93913 27.5818 6V8C27.5818 9.06087 27.0991 10.0783 26.2399 10.8284C25.3806 11.5786 24.2152 12 23.0001 12C21.7849 12 20.6195 11.5786 19.7602 10.8284C18.901 10.0783 18.4183 9.06087 18.4183 8V6C18.4183 4.93913 18.901 3.92172 19.7602 3.17157C20.6195 2.42143 21.7849 2 23.0001 2ZM23.0001 4C22.3925 4 21.8098 4.21071 21.3801 4.58579C20.9505 4.96086 20.7092 5.46957 20.7092 6V8C20.7092 8.53043 20.9505 9.03914 21.3801 9.41421C21.8098 9.78929 22.3925 10 23.0001 10C23.6076 10 24.1903 9.78929 24.62 9.41421C25.0496 9.03914 25.2909 8.53043 25.2909 8V6C25.2909 5.46957 25.0496 4.96086 24.62 4.58579C24.1903 4.21071 23.6076 4 23.0001 4Z" fill="#181725"/>
<path d="M7.83711 38.1684H6.34911L5.76111 36.4764H2.18511L1.59711 38.1684H0.0971094L3.14511 29.7684H4.80111L7.83711 38.1684ZM3.97311 31.3884L2.64111 35.1804H5.30511L3.97311 31.3884ZM11.336 38.3244C10.432 38.3244 9.67605 38.0204 9.06805 37.4124C8.46805 36.7964 8.16805 36.0484 8.16805 35.1684C8.16805 34.2724 8.46805 33.5244 9.06805 32.9244C9.67605 32.3164 10.432 32.0124 11.336 32.0124C11.92 32.0124 12.452 32.1524 12.932 32.4324C13.412 32.7124 13.772 33.0884 14.012 33.5604L12.896 34.2084C12.76 33.9204 12.552 33.6964 12.272 33.5364C12 33.3684 11.684 33.2844 11.324 33.2844C10.796 33.2844 10.352 33.4644 9.99205 33.8244C9.64005 34.1924 9.46405 34.6404 9.46405 35.1684C9.46405 35.6964 9.64005 36.1444 9.99205 36.5124C10.352 36.8724 10.796 37.0524 11.324 37.0524C11.676 37.0524 11.992 36.9724 12.272 36.8124C12.56 36.6444 12.776 36.4164 12.92 36.1284L14.036 36.7644C13.78 37.2444 13.408 37.6244 12.92 37.9044C12.44 38.1844 11.912 38.3244 11.336 38.3244ZM17.711 38.3244C16.807 38.3244 16.051 38.0204 15.443 37.4124C14.843 36.7964 14.543 36.0484 14.543 35.1684C14.543 34.2724 14.843 33.5244 15.443 32.9244C16.051 32.3164 16.807 32.0124 17.711 32.0124C18.295 32.0124 18.827 32.1524 19.307 32.4324C19.787 32.7124 20.147 33.0884 20.387 33.5604L19.271 34.2084C19.135 33.9204 18.927 33.6964 18.647 33.5364C18.375 33.3684 18.059 33.2844 17.699 33.2844C17.171 33.2844 16.727 33.4644 16.367 33.8244C16.015 34.1924 15.839 34.6404 15.839 35.1684C15.839 35.6964 16.015 36.1444 16.367 36.5124C16.727 36.8724 17.171 37.0524 17.699 37.0524C18.051 37.0524 18.367 36.9724 18.647 36.8124C18.935 36.6444 19.151 36.4164 19.295 36.1284L20.411 36.7644C20.155 37.2444 19.783 37.6244 19.295 37.9044C18.815 38.1844 18.287 38.3244 17.711 38.3244ZM26.33 37.4124C25.722 38.0204 24.974 38.3244 24.086 38.3244C23.198 38.3244 22.45 38.0204 21.842 37.4124C21.226 36.7964 20.918 36.0484 20.918 35.1684C20.918 34.2884 21.226 33.5404 21.842 32.9244C22.45 32.3164 23.198 32.0124 24.086 32.0124C24.974 32.0124 25.722 32.3164 26.33 32.9244C26.946 33.5404 27.254 34.2884 27.254 35.1684C27.254 36.0484 26.946 36.7964 26.33 37.4124ZM22.214 35.1684C22.214 35.7124 22.394 36.1644 22.754 36.5244C23.114 36.8844 23.558 37.0644 24.086 37.0644C24.614 37.0644 25.058 36.8844 25.418 36.5244C25.778 36.1644 25.958 35.7124 25.958 35.1684C25.958 34.6244 25.778 34.1724 25.418 33.8124C25.058 33.4524 24.614 33.2724 24.086 33.2724C23.558 33.2724 23.114 33.4524 22.754 33.8124C22.394 34.1724 22.214 34.6244 22.214 35.1684ZM32.4699 35.3844V32.1684H33.7659V38.1684H32.4699V37.4004C32.0699 38.0164 31.4499 38.3244 30.6099 38.3244C29.9139 38.3244 29.3539 38.1044 28.9299 37.6644C28.5139 37.2164 28.3059 36.6124 28.3059 35.8524V32.1684H29.6019V35.7204C29.6019 36.1684 29.7219 36.5124 29.9619 36.7524C30.2019 36.9924 30.5299 37.1124 30.9459 37.1124C31.4179 37.1124 31.7899 36.9684 32.0619 36.6804C32.3339 36.3844 32.4699 35.9524 32.4699 35.3844ZM38.4374 32.0124C39.1334 32.0124 39.6894 32.2364 40.1054 32.6844C40.5294 33.1244 40.7414 33.7244 40.7414 34.4844V38.1684H39.4454V34.6164C39.4454 34.1684 39.3254 33.8244 39.0854 33.5844C38.8454 33.3444 38.5174 33.2244 38.1014 33.2244C37.6294 33.2244 37.2574 33.3724 36.9854 33.6684C36.7134 33.9564 36.5774 34.3844 36.5774 34.9524V38.1684H35.2814V32.1684H36.5774V32.9364C36.9774 32.3204 37.5974 32.0124 38.4374 32.0124ZM45.4849 32.1684V33.4164H43.9969V36.2964C43.9969 36.5444 44.0529 36.7244 44.1649 36.8364C44.2769 36.9404 44.4409 37.0004 44.6569 37.0164C44.8809 37.0244 45.1569 37.0204 45.4849 37.0044V38.1684C44.4929 38.2884 43.7809 38.2044 43.3489 37.9164C42.9169 37.6204 42.7009 37.0804 42.7009 36.2964V33.4164H41.5969V32.1684H42.7009V30.8724L43.9969 30.4884V32.1684H45.4849Z" fill="#181725"/>
</svg>
