<svg width="41" height="39" viewBox="0 0 41 39" fill="none" xmlns="http://www.w3.org/2000/svg">
<path d="M24.47 14.0005C25.2579 14.0005 26.0381 13.8453 26.7661 13.5438C27.494 13.2423 28.1555 12.8003 28.7126 12.2431C29.2698 11.686 29.7117 11.0246 30.0133 10.2966C30.3148 9.56865 30.47 8.78843 30.47 8.0005C30.47 7.21257 30.3148 6.43236 30.0133 5.7044C29.7117 4.97645 29.2698 4.31501 28.7126 3.75786C28.1555 3.20071 27.494 2.75875 26.7661 2.45723C26.0381 2.1557 25.2579 2.0005 24.47 2.0005C22.8787 2.0005 21.3526 2.63264 20.2273 3.75786C19.1021 4.88308 18.47 6.4092 18.47 8.0005C18.47 9.5918 19.1021 11.1179 20.2273 12.2431C21.3526 13.3684 22.8787 14.0005 24.47 14.0005ZM30.79 12.9065L34.37 16.4865C34.4654 16.5788 34.5415 16.6892 34.5939 16.8113C34.6462 16.9333 34.6737 17.0645 34.6747 17.1973C34.6758 17.3301 34.6504 17.4618 34.6 17.5846C34.5497 17.7075 34.4753 17.8191 34.3814 17.9129C34.2874 18.0067 34.1757 18.0809 34.0528 18.1311C33.9298 18.1813 33.7981 18.2065 33.6654 18.2052C33.5326 18.204 33.4014 18.1763 33.2794 18.1238C33.1575 18.0713 33.0472 17.9951 32.955 17.8995L29.375 14.3195C27.7674 15.5674 25.7448 16.1557 23.7187 15.9647C21.6927 15.7737 19.8156 14.8178 18.4695 13.2916C17.1235 11.7653 16.4097 9.78345 16.4734 7.74943C16.5372 5.7154 17.3737 3.78213 18.8126 2.34315C20.2516 0.904173 22.1849 0.0676701 24.2189 0.00392902C26.2529 -0.0598121 28.2348 0.654 29.761 2.00005C31.2873 3.34611 32.2432 5.22322 32.4342 7.24926C32.6252 9.2753 32.0368 11.298 30.789 12.9055L30.79 12.9065Z" fill="#181725"/>
<rect x="6.32544" width="8.85499" height="2.39923" rx="1.19961" fill="#181725"/>
<rect x="6.32544" y="7.43819" width="6.46414" height="2.39923" rx="1.19961" fill="#181725"/>
<rect x="6.32544" y="14.8768" width="8.85499" height="2.39923" rx="1.19961" fill="#181725"/>
<path d="M2.2532 30.8615V33.1295H5.9732V34.4495H0.873203V26.0495H5.9132V27.3695H2.2532V29.5535H5.6132V30.8615H2.2532ZM10.2725 31.3775L12.5165 34.4495H11.0165L9.52848 32.3975L8.02848 34.4495H6.51648L8.77248 31.3655L6.63648 28.4495H8.13648L9.51648 30.3455L10.8965 28.4495H12.4085L10.2725 31.3775ZM16.7829 28.2935C17.5989 28.2935 18.3029 28.6015 18.8949 29.2175C19.4789 29.8255 19.7709 30.5695 19.7709 31.4495C19.7709 32.3375 19.4789 33.0855 18.8949 33.6935C18.3109 34.3015 17.6069 34.6055 16.7829 34.6055C15.8789 34.6055 15.1789 34.2695 14.6829 33.5975V36.8495H13.3869V28.4495H14.6829V29.3135C15.1709 28.6335 15.8709 28.2935 16.7829 28.2935ZM15.2229 32.8295C15.5829 33.1895 16.0349 33.3695 16.5789 33.3695C17.1229 33.3695 17.5749 33.1895 17.9349 32.8295C18.2949 32.4615 18.4749 32.0015 18.4749 31.4495C18.4749 30.8975 18.2949 30.4415 17.9349 30.0815C17.5749 29.7135 17.1229 29.5295 16.5789 29.5295C16.0349 29.5295 15.5829 29.7135 15.2229 30.0815C14.8629 30.4415 14.6829 30.8975 14.6829 31.4495C14.6829 31.9935 14.8629 32.4535 15.2229 32.8295ZM22.2415 34.4495H20.9455V25.6895H22.2415V34.4495ZM28.8222 33.6935C28.2142 34.3015 27.4662 34.6055 26.5782 34.6055C25.6902 34.6055 24.9422 34.3015 24.3342 33.6935C23.7182 33.0775 23.4102 32.3295 23.4102 31.4495C23.4102 30.5695 23.7182 29.8215 24.3342 29.2055C24.9422 28.5975 25.6902 28.2935 26.5782 28.2935C27.4662 28.2935 28.2142 28.5975 28.8222 29.2055C29.4382 29.8215 29.7462 30.5695 29.7462 31.4495C29.7462 32.3295 29.4382 33.0775 28.8222 33.6935ZM24.7062 31.4495C24.7062 31.9935 24.8862 32.4455 25.2462 32.8055C25.6062 33.1655 26.0502 33.3455 26.5782 33.3455C27.1062 33.3455 27.5502 33.1655 27.9102 32.8055C28.2702 32.4455 28.4502 31.9935 28.4502 31.4495C28.4502 30.9055 28.2702 30.4535 27.9102 30.0935C27.5502 29.7335 27.1062 29.5535 26.5782 29.5535C26.0502 29.5535 25.6062 29.7335 25.2462 30.0935C24.8862 30.4535 24.7062 30.9055 24.7062 31.4495ZM32.2141 28.4495V29.4575C32.5421 28.7135 33.1581 28.3415 34.0621 28.3415V29.7455C33.5741 29.7135 33.1421 29.8335 32.7661 30.1055C32.3981 30.3695 32.2141 30.8095 32.2141 31.4255V34.4495H30.9181V28.4495H32.2141ZM40.5344 32.0015H35.7584C35.8544 32.4495 36.0704 32.7975 36.4064 33.0455C36.7504 33.2935 37.1744 33.4175 37.6784 33.4175C38.3584 33.4175 38.8744 33.1695 39.2264 32.6735L40.2944 33.2975C39.7104 34.1695 38.8344 34.6055 37.6664 34.6055C36.6984 34.6055 35.9104 34.3095 35.3024 33.7175C34.7024 33.1175 34.4024 32.3615 34.4024 31.4495C34.4024 30.5615 34.6984 29.8135 35.2904 29.2055C35.8744 28.5975 36.6344 28.2935 37.5704 28.2935C38.4424 28.2935 39.1624 28.6015 39.7304 29.2175C40.2984 29.8335 40.5824 30.5815 40.5824 31.4615C40.5824 31.6215 40.5664 31.8015 40.5344 32.0015ZM35.7464 30.9455H39.2744C39.1864 30.4735 38.9864 30.1095 38.6744 29.8535C38.3704 29.5975 37.9984 29.4695 37.5584 29.4695C37.0784 29.4695 36.6784 29.6015 36.3584 29.8655C36.0384 30.1295 35.8344 30.4895 35.7464 30.9455Z" fill="#181725"/>
</svg>
