<svg width="29" height="43" viewBox="0 0 29 43" fill="none" xmlns="http://www.w3.org/2000/svg">
<path d="M7.5 2.0498H21.5C22.2824 2.0498 23.0327 2.36083 23.5859 2.91406C24.1392 3.46729 24.4502 4.21761 24.4502 5V7C24.4502 7.86722 24.0763 8.64762 23.4795 9.1875L23.4629 9.20312V19.9648C23.4629 20.482 23.2573 20.9781 22.8916 21.3438C22.5259 21.7094 22.0298 21.915 21.5127 21.915H13.873V21.9141L13.8633 21.916C13.7435 21.9386 13.6219 21.9502 13.5 21.9502H11.5C11.3781 21.9502 11.2565 21.9386 11.1367 21.916L11.127 21.9648L11.1367 21.915H7.51074C6.99366 21.915 6.49747 21.7094 6.13184 21.3438C5.76627 20.9781 5.56055 20.4819 5.56055 19.9648V9.12402L5.50781 9.17578C5.21177 8.90516 4.97323 8.57706 4.80859 8.21094C4.63746 7.83026 4.54922 7.41738 4.5498 7V5C4.5498 4.21761 4.86083 3.46729 5.41406 2.91406C5.96729 2.36083 6.71761 2.04981 7.5 2.0498ZM17.4668 9.19922C16.9265 9.68379 16.2257 9.9512 15.5 9.9502H13.5C12.7448 9.95019 12.0543 9.66623 11.5332 9.19922L11.5 9.16895L11.4668 9.19922C10.9265 9.68379 10.2257 9.9512 9.5 9.9502H7.45996V20.0146H9.5498V15C9.5498 14.4828 9.7554 13.9868 10.1211 13.6211C10.4868 13.2554 10.9828 13.0498 11.5 13.0498H13.5C14.0172 13.0498 14.5132 13.2554 14.8789 13.6211C15.2446 13.9868 15.4502 14.4828 15.4502 15V20.0146H21.5635V9.9502H19.5C18.7448 9.95019 18.0543 9.66623 17.5332 9.19922L17.5 9.16895L17.4668 9.19922ZM11.4502 20.0146H13.5V19.9658H13.5498V14.9502H11.4502V20.0146ZM18.5 13.0498H19.5C19.752 13.0498 19.9937 13.15 20.1719 13.3281C20.35 13.5063 20.4502 13.748 20.4502 14V17C20.4502 17.252 20.35 17.4937 20.1719 17.6719C19.9937 17.85 19.752 17.9502 19.5 17.9502H18.5C18.248 17.9502 18.0063 17.85 17.8281 17.6719C17.65 17.4937 17.5498 17.252 17.5498 17V14C17.5498 13.748 17.65 13.5063 17.8281 13.3281C18.0063 13.15 18.248 13.0498 18.5 13.0498ZM7.5 3.9502C7.22152 3.9502 6.95473 4.0609 6.75781 4.25781C6.5609 4.45473 6.4502 4.72152 6.4502 5V7C6.4502 7.27848 6.5609 7.54527 6.75781 7.74219C6.95473 7.9391 7.22152 8.0498 7.5 8.0498H9.5C9.77848 8.0498 10.0453 7.9391 10.2422 7.74219C10.4391 7.54527 10.5498 7.27848 10.5498 7V3.9502H7.5ZM12.4502 7C12.4502 7.27848 12.5609 7.54527 12.7578 7.74219C12.9547 7.9391 13.2215 8.0498 13.5 8.0498H15.5C15.7785 8.0498 16.0453 7.9391 16.2422 7.74219C16.4391 7.54527 16.5498 7.27848 16.5498 7V3.9502H12.4502V7ZM18.4502 7C18.4502 7.27848 18.5609 7.54527 18.7578 7.74219C18.9547 7.9391 19.2215 8.0498 19.5 8.0498H21.5C21.7785 8.0498 22.0453 7.9391 22.2422 7.74219C22.4391 7.54527 22.5498 7.27848 22.5498 7V5C22.5498 4.72152 22.4391 4.45473 22.2422 4.25781C22.0453 4.0609 21.7785 3.9502 21.5 3.9502H18.4502V7Z" fill="#181725" stroke="white" stroke-width="0.1"/>
<path d="M3.8567 38.3244C3.0487 38.3244 2.3607 38.1444 1.7927 37.7844C1.2327 37.4164 0.840703 36.9084 0.616703 36.2604L1.8047 35.5644C2.1407 36.5084 2.8367 36.9804 3.8927 36.9804C4.4047 36.9804 4.7927 36.8804 5.0567 36.6804C5.3207 36.4804 5.4527 36.2124 5.4527 35.8764C5.4527 35.5404 5.3127 35.2804 5.0327 35.0964C4.7527 34.9124 4.2567 34.7124 3.5447 34.4964C2.8167 34.2804 2.2287 34.0244 1.7807 33.7284C1.2367 33.3444 0.964703 32.7804 0.964703 32.0364C0.964703 31.2924 1.2287 30.7044 1.7567 30.2724C2.2767 29.8324 2.9127 29.6124 3.6647 29.6124C4.3287 29.6124 4.9127 29.7764 5.4167 30.1044C5.9287 30.4244 6.3207 30.8764 6.5927 31.4604L5.4287 32.1324C5.0767 31.3484 4.4887 30.9564 3.6647 30.9564C3.2647 30.9564 2.9447 31.0524 2.7047 31.2444C2.4647 31.4284 2.3447 31.6804 2.3447 32.0004C2.3447 32.3124 2.4647 32.5604 2.7047 32.7444C2.9447 32.9204 3.3887 33.1084 4.0367 33.3084C4.4367 33.4444 4.6687 33.5244 4.7327 33.5484C4.8367 33.5804 5.0447 33.6604 5.3567 33.7884C5.6127 33.8924 5.8167 34.0044 5.9687 34.1244C6.5927 34.6124 6.8807 35.1884 6.8327 35.8524C6.8327 36.6124 6.5567 37.2164 6.0047 37.6644C5.4687 38.1044 4.7527 38.3244 3.8567 38.3244ZM11.1054 32.0124C11.8014 32.0124 12.3574 32.2364 12.7734 32.6844C13.1974 33.1244 13.4094 33.7244 13.4094 34.4844V38.1684H12.1134V34.6164C12.1134 34.1684 11.9934 33.8244 11.7534 33.5844C11.5134 33.3444 11.1854 33.2244 10.7694 33.2244C10.2974 33.2244 9.92536 33.3724 9.65336 33.6684C9.38136 33.9564 9.24536 34.3844 9.24536 34.9524V38.1684H7.94936V29.7684H9.24536V32.9364C9.64536 32.3204 10.2654 32.0124 11.1054 32.0124ZM19.8808 37.4124C19.2728 38.0204 18.5248 38.3244 17.6368 38.3244C16.7488 38.3244 16.0008 38.0204 15.3928 37.4124C14.7768 36.7964 14.4688 36.0484 14.4688 35.1684C14.4688 34.2884 14.7768 33.5404 15.3928 32.9244C16.0008 32.3164 16.7488 32.0124 17.6368 32.0124C18.5248 32.0124 19.2728 32.3164 19.8808 32.9244C20.4968 33.5404 20.8048 34.2884 20.8048 35.1684C20.8048 36.0484 20.4968 36.7964 19.8808 37.4124ZM15.7648 35.1684C15.7648 35.7124 15.9448 36.1644 16.3048 36.5244C16.6648 36.8844 17.1088 37.0644 17.6368 37.0644C18.1648 37.0644 18.6088 36.8844 18.9688 36.5244C19.3288 36.1644 19.5088 35.7124 19.5088 35.1684C19.5088 34.6244 19.3288 34.1724 18.9688 33.8124C18.6088 33.4524 18.1648 33.2724 17.6368 33.2724C17.1088 33.2724 16.6648 33.4524 16.3048 33.8124C15.9448 34.1724 15.7648 34.6244 15.7648 35.1684ZM25.3727 32.0124C26.1887 32.0124 26.8927 32.3204 27.4847 32.9364C28.0687 33.5444 28.3607 34.2884 28.3607 35.1684C28.3607 36.0564 28.0687 36.8044 27.4847 37.4124C26.9007 38.0204 26.1967 38.3244 25.3727 38.3244C24.4687 38.3244 23.7687 37.9884 23.2727 37.3164V40.5684H21.9767V32.1684H23.2727V33.0324C23.7607 32.3524 24.4607 32.0124 25.3727 32.0124ZM23.8127 36.5484C24.1727 36.9084 24.6247 37.0884 25.1687 37.0884C25.7127 37.0884 26.1647 36.9084 26.5247 36.5484C26.8847 36.1804 27.0647 35.7204 27.0647 35.1684C27.0647 34.6164 26.8847 34.1604 26.5247 33.8004C26.1647 33.4324 25.7127 33.2484 25.1687 33.2484C24.6247 33.2484 24.1727 33.4324 23.8127 33.8004C23.4527 34.1604 23.2727 34.6164 23.2727 35.1684C23.2727 35.7124 23.4527 36.1724 23.8127 36.5484Z" fill="#181725"/>
</svg>
